<svg xmlns="http://www.w3.org/2000/svg" xmlns:svg="http://www.w3.org/2000/svg" xmlns:xlink="http://www.w3.org/1999/xlink" id="svg2" width="48" height="48" version="1.0"><defs id="defs4"><linearGradient id="linearGradient3164"><stop style="stop-color:#fff;stop-opacity:1" id="stop3166" offset="0"/><stop style="stop-color:#fff;stop-opacity:0" id="stop3168" offset="1"/></linearGradient><linearGradient id="linearGradient3176"><stop style="stop-color:#fff;stop-opacity:1" id="stop3178" offset="0"/><stop style="stop-color:#fff;stop-opacity:0" id="stop3180" offset="1"/></linearGradient><linearGradient id="linearGradient3177"><stop style="stop-color:#fff;stop-opacity:1" id="stop3179" offset="0"/><stop style="stop-color:#fff;stop-opacity:0" id="stop3181" offset="1"/></linearGradient><radialGradient id="radialGradient3221" cx="25.179" cy="28.179" r="22.795" fx="25.179" fy="28.179" gradientTransform="matrix(0.6766703,-2.2141108e-8,1.9648128e-8,0.6004805,6.9650525,7.0819603)" gradientUnits="userSpaceOnUse" xlink:href="#linearGradient3177"/><radialGradient id="radialGradient3184" cx="-20.446" cy="11.839" r="14.614" fx="-20.446" fy="11.839" gradientTransform="matrix(2.0560686,-5.4683202e-8,6.750562e-8,2.5381869,21.592831,-18.211035)" gradientUnits="userSpaceOnUse" xlink:href="#linearGradient3176"/><radialGradient id="radialGradient3190" cx="-20.446" cy="11.839" r="14.614" fx="-20.446" fy="11.839" gradientTransform="matrix(2.0560686,-5.4683202e-8,6.750562e-8,2.5381869,21.592831,-18.211035)" gradientUnits="userSpaceOnUse" xlink:href="#linearGradient3176"/><radialGradient id="radialGradient3172" cx="-11.071" cy="15.679" r="9.769" fx="-11.071" fy="15.679" gradientUnits="userSpaceOnUse" xlink:href="#linearGradient3164"/></defs><metadata id="metadata7"/><g id="layer1"><path style="opacity:1;fill:#fff;fill-opacity:1;fill-rule:nonzero;stroke:none;stroke-width:1;stroke-linecap:round;stroke-linejoin:miter;stroke-miterlimit:4;stroke-dasharray:none;stroke-opacity:1" id="path3175" d="M 24 6 L 24 16.84375 C 27.951677 16.84375 31.15625 20.048322 31.15625 24 C 31.15625 27.176015 29.083598 29.876845 26.21875 30.8125 L 29.5625 41.125 C 37.122258 38.668686 42.000001 31.948801 42 24 C 42 14.064 33.936001 6.0000004 24 6 z"/><path style="opacity:1;fill:none;fill-opacity:1;fill-rule:nonzero;stroke:#fff;stroke-width:3.38839293;stroke-linecap:round;stroke-linejoin:miter;stroke-miterlimit:4;stroke-dasharray:none;stroke-opacity:1" id="path3170" d="M 47.5,25.767857 A 22.589285,22.589285 0 1 1 2.3214302,25.767857 A 22.589285,22.589285 0 1 1 47.5,25.767857 z" transform="matrix(0.8853755,0,0,0.8853755,1.9446632,1.1857711)"/><path style="opacity:1;fill:none;fill-opacity:1;fill-rule:nonzero;stroke:#fff;stroke-width:2.39464283;stroke-linecap:round;stroke-linejoin:miter;stroke-miterlimit:4;stroke-dasharray:none;stroke-opacity:1" id="path3172" d="M -2.5,15.678572 A 8.5714283,8.5714283 0 1 1 -19.642857,15.678572 A 8.5714283,8.5714283 0 1 1 -2.5,15.678572 z" transform="matrix(0.8351976,0,0,0.8351976,33.24683,10.905295)"/><path style="opacity:1;fill:none;fill-opacity:1;fill-rule:nonzero;stroke:url(#radialGradient3184);stroke-width:2.97900008999999999;stroke-linecap:round;stroke-linejoin:miter;stroke-miterlimit:4;stroke-dasharray:none;stroke-opacity:1" id="path3174" d="M -7.3214283,11.839286 A 13.125,13.125 0 1 1 -33.571428,11.839286 A 13.125,13.125 0 1 1 -7.3214283,11.839286 z" transform="matrix(0.7526771,0,0,0.7526771,39.389558,15.088841)"/></g></svg>